<svg width="55" height="55" viewBox="0 0 55 55" xmlns="http://www.w3.org/2000/svg" xmlns:xlink="http://www.w3.org/1999/xlink"><title>arrow_r</title><desc>Created using Figma</desc><use xlink:href="#a" transform="matrix(-1 0 0 1 55 0)" fill="#353535"/><use xlink:href="#b" transform="matrix(-1 0 0 1 34 15)" fill="#353535"/><defs><path id="a" fill-rule="evenodd" d="M27.5 53C13.439 53 2 41.561 2 27.5S13.439 2 27.5 2 53 13.439 53 27.5 41.561 53 27.5 53zm0-53C12.312 0 0 12.312 0 27.5 0 42.687 12.312 55 27.5 55S55 42.687 55 27.5C55 12.312 42.688 0 27.5 0z"/><path id="b" fill-rule="evenodd" d="M9.461.164A1.002 1.002 0 0 0 8.076.45L.165 12.493a.997.997 0 0 0 0 1.1l7.878 11.945a.997.997 0 0 0 1.385.284 1 1 0 0 0 .283-1.386L2.197 13.041 9.748 1.55A1 1 0 0 0 9.461.164z"/></defs></svg>