<svg width="92" height="92" viewBox="0 0 92 92" xmlns="http://www.w3.org/2000/svg" xmlns:xlink="http://www.w3.org/1999/xlink"><title>Group</title><desc>Created using Figma</desc><use xlink:href="#a" transform="translate(1 1)" fill="#FFF"/><use xlink:href="#b" transform="translate(39 33)" fill="#FFF"/><defs><path id="a" d="M45 91c25.405 0 46-20.595 46-46h-2c0 24.3-19.7 44-44 44v2zm46-46C91 19.595 70.405-1 45-1v2c24.3 0 44 19.7 44 44h2zM45-1C19.595-1-1 19.595-1 45h2C1 20.7 20.7 1 45 1v-2zM-1 45c0 25.405 20.595 46 46 46v-2C20.7 89 1 69.3 1 45h-2z"/><path id="b" d="M21 13l.526.85L22.9 13l-1.374-.85L21 13zM0 26h-1v1.795l1.526-.945L0 26zM0 0l.526-.85L-1-1.795V0h1zm20.474 12.15l-21 13 1.052 1.7 21-13-1.052-1.7zM1 26V0h-2v26h2zM-.526.85l21 13 1.052-1.7-21-13L-.526.85z"/></defs></svg>