<svg width="53" height="58" viewBox="0 0 53 58" xmlns="http://www.w3.org/2000/svg" xmlns:xlink="http://www.w3.org/1999/xlink"><title>Page 1</title><desc>Created using Figma</desc><use xlink:href="#a" fill="#43C7B6"/><defs><path id="a" fill-rule="evenodd" d="M50.48 31.735c-.537 12.846-11.152 23.133-24.13 23.133-13.319 0-24.157-10.837-24.157-24.157 0-13.293 10.796-24.112 24.079-24.155v4.46c0 .36.19.69.49.87.16.09.33.13.51.13.17 0 .341-.04.49-.13l11.79-5.01c.311-.18.51-.51.51-.87s-.199-.69-.51-.86L27.762.135a.986.986 0 0 0-1.359.37.97.97 0 0 0-.101.74c-.019.08-.03.16-.03.24v2.877C11.778 4.405 0 16.208 0 30.711c0 14.53 11.82 26.35 26.35 26.35 14.187 0 25.784-11.27 26.323-25.326H50.48z"/></defs></svg>